<mxfile host="app.diagrams.net" modified="2022-01-12T05:23:18.123Z" agent="5.0 (Windows NT 10.0; Win64; x64) AppleWebKit/537.36 (KHTML, like Gecko) Chrome/96.0.4664.110 Safari/537.36" etag="G5_p9Fe8QI_UIRF5Ru-p" version="16.1.0" type="github">
  <diagram id="8WjdRJNzvcCob919X_vl" name="Page-1">
    <mxGraphModel dx="1594" dy="882" grid="1" gridSize="10" guides="1" tooltips="1" connect="1" arrows="1" fold="1" page="1" pageScale="1" pageWidth="827" pageHeight="1169" math="0" shadow="0">
      <root>
        <mxCell id="0" />
        <mxCell id="1" parent="0" />
        <mxCell id="quUrAPskGc8MLW7vgIRe-1" value="HardwareInterface" style="swimlane;fontStyle=1;align=center;verticalAlign=top;childLayout=stackLayout;horizontal=1;startSize=26;horizontalStack=0;resizeParent=1;resizeParentMax=0;resizeLast=0;collapsible=1;marginBottom=0;" vertex="1" parent="1">
          <mxGeometry x="171" y="138" width="150" height="138" as="geometry">
            <mxRectangle x="200" y="240" width="100" height="26" as="alternateBounds" />
          </mxGeometry>
        </mxCell>
        <mxCell id="quUrAPskGc8MLW7vgIRe-2" value="- claims_: set&lt;string&gt;" style="text;strokeColor=none;fillColor=none;align=left;verticalAlign=top;spacingLeft=4;spacingRight=4;overflow=hidden;rotatable=0;points=[[0,0.5],[1,0.5]];portConstraint=eastwest;" vertex="1" parent="quUrAPskGc8MLW7vgIRe-1">
          <mxGeometry y="26" width="150" height="26" as="geometry" />
        </mxCell>
        <mxCell id="quUrAPskGc8MLW7vgIRe-3" value="" style="line;strokeWidth=1;fillColor=none;align=left;verticalAlign=middle;spacingTop=-1;spacingLeft=3;spacingRight=3;rotatable=0;labelPosition=right;points=[];portConstraint=eastwest;" vertex="1" parent="quUrAPskGc8MLW7vgIRe-1">
          <mxGeometry y="52" width="150" height="8" as="geometry" />
        </mxCell>
        <mxCell id="quUrAPskGc8MLW7vgIRe-4" value="+ virtual claim(string): void" style="text;strokeColor=#b85450;fillColor=#f8cecc;align=left;verticalAlign=top;spacingLeft=4;spacingRight=4;overflow=hidden;rotatable=0;points=[[0,0.5],[1,0.5]];portConstraint=eastwest;" vertex="1" parent="quUrAPskGc8MLW7vgIRe-1">
          <mxGeometry y="60" width="150" height="26" as="geometry" />
        </mxCell>
        <mxCell id="quUrAPskGc8MLW7vgIRe-9" value="+ clearClaims(): void" style="text;strokeColor=none;fillColor=none;align=left;verticalAlign=top;spacingLeft=4;spacingRight=4;overflow=hidden;rotatable=0;points=[[0,0.5],[1,0.5]];portConstraint=eastwest;" vertex="1" parent="quUrAPskGc8MLW7vgIRe-1">
          <mxGeometry y="86" width="150" height="26" as="geometry" />
        </mxCell>
        <mxCell id="quUrAPskGc8MLW7vgIRe-10" value="+ getClaims(): set&lt;string&gt;" style="text;strokeColor=none;fillColor=none;align=left;verticalAlign=top;spacingLeft=4;spacingRight=4;overflow=hidden;rotatable=0;points=[[0,0.5],[1,0.5]];portConstraint=eastwest;" vertex="1" parent="quUrAPskGc8MLW7vgIRe-1">
          <mxGeometry y="112" width="150" height="26" as="geometry" />
        </mxCell>
        <mxCell id="quUrAPskGc8MLW7vgIRe-29" style="rounded=0;orthogonalLoop=1;jettySize=auto;html=1;endArrow=block;endFill=0;" edge="1" parent="1" source="quUrAPskGc8MLW7vgIRe-11" target="quUrAPskGc8MLW7vgIRe-1">
          <mxGeometry relative="1" as="geometry" />
        </mxCell>
        <mxCell id="quUrAPskGc8MLW7vgIRe-30" style="edgeStyle=none;rounded=0;orthogonalLoop=1;jettySize=auto;html=1;endArrow=block;endFill=0;" edge="1" parent="1" source="quUrAPskGc8MLW7vgIRe-11" target="quUrAPskGc8MLW7vgIRe-19">
          <mxGeometry relative="1" as="geometry" />
        </mxCell>
        <mxCell id="quUrAPskGc8MLW7vgIRe-11" value="HardwareResourceManager" style="swimlane;fontStyle=1;align=center;verticalAlign=bottom;childLayout=stackLayout;horizontal=1;startSize=40;horizontalStack=0;resizeParent=1;resizeParentMax=0;resizeLast=0;collapsible=1;marginBottom=0;" vertex="1" parent="1">
          <mxGeometry x="241" y="355" width="280" height="74" as="geometry">
            <mxRectangle x="200" y="240" width="100" height="26" as="alternateBounds" />
          </mxGeometry>
        </mxCell>
        <mxCell id="quUrAPskGc8MLW7vgIRe-13" value="" style="line;strokeWidth=1;fillColor=none;align=left;verticalAlign=middle;spacingTop=-1;spacingLeft=3;spacingRight=3;rotatable=0;labelPosition=right;points=[];portConstraint=eastwest;" vertex="1" parent="quUrAPskGc8MLW7vgIRe-11">
          <mxGeometry y="40" width="280" height="8" as="geometry" />
        </mxCell>
        <mxCell id="quUrAPskGc8MLW7vgIRe-14" value="+ getHandle(const string&amp;): ResourceHandle" style="text;strokeColor=none;fillColor=none;align=left;verticalAlign=top;spacingLeft=4;spacingRight=4;overflow=hidden;rotatable=0;points=[[0,0.5],[1,0.5]];portConstraint=eastwest;" vertex="1" parent="quUrAPskGc8MLW7vgIRe-11">
          <mxGeometry y="48" width="280" height="26" as="geometry" />
        </mxCell>
        <mxCell id="quUrAPskGc8MLW7vgIRe-18" value="ResourceHandle&lt;br&gt;ClaimPolicy" style="rounded=0;whiteSpace=wrap;html=1;dashed=1;align=left;" vertex="1" parent="1">
          <mxGeometry x="471" y="340" width="100" height="30" as="geometry" />
        </mxCell>
        <mxCell id="quUrAPskGc8MLW7vgIRe-27" style="edgeStyle=orthogonalEdgeStyle;rounded=0;orthogonalLoop=1;jettySize=auto;html=1;entryX=0.5;entryY=1;entryDx=0;entryDy=0;endArrow=blockThin;endFill=0;" edge="1" parent="1" source="quUrAPskGc8MLW7vgIRe-19" target="quUrAPskGc8MLW7vgIRe-26">
          <mxGeometry relative="1" as="geometry" />
        </mxCell>
        <mxCell id="quUrAPskGc8MLW7vgIRe-19" value="ResourceManager" style="swimlane;fontStyle=1;align=center;verticalAlign=bottom;childLayout=stackLayout;horizontal=1;startSize=40;horizontalStack=0;resizeParent=1;resizeParentMax=0;resizeLast=0;collapsible=1;marginBottom=0;" vertex="1" parent="1">
          <mxGeometry x="341" y="86" width="420" height="190" as="geometry">
            <mxRectangle x="200" y="240" width="100" height="26" as="alternateBounds" />
          </mxGeometry>
        </mxCell>
        <mxCell id="quUrAPskGc8MLW7vgIRe-20" value="# resource_map_: map&lt;string, ResourceHandle&gt;" style="text;strokeColor=#82b366;fillColor=#d5e8d4;align=left;verticalAlign=top;spacingLeft=4;spacingRight=4;overflow=hidden;rotatable=0;points=[[0,0.5],[1,0.5]];portConstraint=eastwest;" vertex="1" parent="quUrAPskGc8MLW7vgIRe-19">
          <mxGeometry y="40" width="420" height="26" as="geometry" />
        </mxCell>
        <mxCell id="quUrAPskGc8MLW7vgIRe-21" value="" style="line;strokeWidth=1;fillColor=none;align=left;verticalAlign=middle;spacingTop=-1;spacingLeft=3;spacingRight=3;rotatable=0;labelPosition=right;points=[];portConstraint=eastwest;" vertex="1" parent="quUrAPskGc8MLW7vgIRe-19">
          <mxGeometry y="66" width="420" height="8" as="geometry" />
        </mxCell>
        <mxCell id="quUrAPskGc8MLW7vgIRe-22" value="+ getNames() const: vector&lt;string&gt;" style="text;strokeColor=none;fillColor=none;align=left;verticalAlign=top;spacingLeft=4;spacingRight=4;overflow=hidden;rotatable=0;points=[[0,0.5],[1,0.5]];portConstraint=eastwest;" vertex="1" parent="quUrAPskGc8MLW7vgIRe-19">
          <mxGeometry y="74" width="420" height="26" as="geometry" />
        </mxCell>
        <mxCell id="quUrAPskGc8MLW7vgIRe-23" value="+ registerHandle(const ResourceHandle&amp;): void" style="text;strokeColor=#b85450;fillColor=#f8cecc;align=left;verticalAlign=top;spacingLeft=4;spacingRight=4;overflow=hidden;rotatable=0;points=[[0,0.5],[1,0.5]];portConstraint=eastwest;" vertex="1" parent="quUrAPskGc8MLW7vgIRe-19">
          <mxGeometry y="100" width="420" height="26" as="geometry" />
        </mxCell>
        <mxCell id="quUrAPskGc8MLW7vgIRe-24" value="+ getHandle(const string&amp;): ResourceHandle" style="text;strokeColor=#b85450;fillColor=#f8cecc;align=left;verticalAlign=top;spacingLeft=4;spacingRight=4;overflow=hidden;rotatable=0;points=[[0,0.5],[1,0.5]];portConstraint=eastwest;" vertex="1" parent="quUrAPskGc8MLW7vgIRe-19">
          <mxGeometry y="126" width="420" height="26" as="geometry" />
        </mxCell>
        <mxCell id="quUrAPskGc8MLW7vgIRe-28" value="+ static concatManagers(vector&lt;ResourceManager&lt;ResourceHandle&gt;*&gt;&amp;,&#xa;                                        ResourceManager&lt;ResourceHandle&gt;* result): void" style="text;strokeColor=none;fillColor=none;align=left;verticalAlign=top;spacingLeft=4;spacingRight=4;overflow=hidden;rotatable=0;points=[[0,0.5],[1,0.5]];portConstraint=eastwest;" vertex="1" parent="quUrAPskGc8MLW7vgIRe-19">
          <mxGeometry y="152" width="420" height="38" as="geometry" />
        </mxCell>
        <mxCell id="quUrAPskGc8MLW7vgIRe-25" value="ResourceHandle" style="rounded=0;whiteSpace=wrap;html=1;dashed=1;align=left;" vertex="1" parent="1">
          <mxGeometry x="711" y="71" width="100" height="30" as="geometry" />
        </mxCell>
        <mxCell id="quUrAPskGc8MLW7vgIRe-26" value="&lt;p style=&quot;margin: 0px ; margin-top: 4px ; text-align: center&quot;&gt;&lt;br&gt;&lt;b&gt;ResourceManagerBase&lt;/b&gt;&lt;/p&gt;" style="verticalAlign=top;align=left;overflow=fill;fontSize=12;fontFamily=Helvetica;html=1;dashed=1;" vertex="1" parent="1">
          <mxGeometry x="471" width="160" height="40" as="geometry" />
        </mxCell>
        <mxCell id="quUrAPskGc8MLW7vgIRe-31" value="JointStateHandle" style="swimlane;fontStyle=1;align=center;verticalAlign=top;childLayout=stackLayout;horizontal=1;startSize=26;horizontalStack=0;resizeParent=1;resizeParentMax=0;resizeLast=0;collapsible=1;marginBottom=0;" vertex="1" parent="1">
          <mxGeometry x="66" y="585" width="185" height="294" as="geometry" />
        </mxCell>
        <mxCell id="quUrAPskGc8MLW7vgIRe-32" value="- name_: string" style="text;strokeColor=none;fillColor=none;align=left;verticalAlign=top;spacingLeft=4;spacingRight=4;overflow=hidden;rotatable=0;points=[[0,0.5],[1,0.5]];portConstraint=eastwest;" vertex="1" parent="quUrAPskGc8MLW7vgIRe-31">
          <mxGeometry y="26" width="185" height="26" as="geometry" />
        </mxCell>
        <mxCell id="quUrAPskGc8MLW7vgIRe-35" value="- pos_: const double*" style="text;strokeColor=none;fillColor=none;align=left;verticalAlign=top;spacingLeft=4;spacingRight=4;overflow=hidden;rotatable=0;points=[[0,0.5],[1,0.5]];portConstraint=eastwest;" vertex="1" parent="quUrAPskGc8MLW7vgIRe-31">
          <mxGeometry y="52" width="185" height="26" as="geometry" />
        </mxCell>
        <mxCell id="quUrAPskGc8MLW7vgIRe-36" value="- vel_: const double*" style="text;strokeColor=none;fillColor=none;align=left;verticalAlign=top;spacingLeft=4;spacingRight=4;overflow=hidden;rotatable=0;points=[[0,0.5],[1,0.5]];portConstraint=eastwest;" vertex="1" parent="quUrAPskGc8MLW7vgIRe-31">
          <mxGeometry y="78" width="185" height="26" as="geometry" />
        </mxCell>
        <mxCell id="quUrAPskGc8MLW7vgIRe-37" value="- eff_: const double*" style="text;strokeColor=none;fillColor=none;align=left;verticalAlign=top;spacingLeft=4;spacingRight=4;overflow=hidden;rotatable=0;points=[[0,0.5],[1,0.5]];portConstraint=eastwest;" vertex="1" parent="quUrAPskGc8MLW7vgIRe-31">
          <mxGeometry y="104" width="185" height="26" as="geometry" />
        </mxCell>
        <mxCell id="quUrAPskGc8MLW7vgIRe-38" value="- absolute_pos_: const double*" style="text;strokeColor=none;fillColor=none;align=left;verticalAlign=top;spacingLeft=4;spacingRight=4;overflow=hidden;rotatable=0;points=[[0,0.5],[1,0.5]];portConstraint=eastwest;" vertex="1" parent="quUrAPskGc8MLW7vgIRe-31">
          <mxGeometry y="130" width="185" height="26" as="geometry" />
        </mxCell>
        <mxCell id="quUrAPskGc8MLW7vgIRe-39" value="- torque_sensor_: const double*" style="text;strokeColor=none;fillColor=none;align=left;verticalAlign=top;spacingLeft=4;spacingRight=4;overflow=hidden;rotatable=0;points=[[0,0.5],[1,0.5]];portConstraint=eastwest;" vertex="1" parent="quUrAPskGc8MLW7vgIRe-31">
          <mxGeometry y="156" width="185" height="26" as="geometry" />
        </mxCell>
        <mxCell id="quUrAPskGc8MLW7vgIRe-33" value="" style="line;strokeWidth=1;fillColor=none;align=left;verticalAlign=middle;spacingTop=-1;spacingLeft=3;spacingRight=3;rotatable=0;labelPosition=right;points=[];portConstraint=eastwest;" vertex="1" parent="quUrAPskGc8MLW7vgIRe-31">
          <mxGeometry y="182" width="185" height="8" as="geometry" />
        </mxCell>
        <mxCell id="quUrAPskGc8MLW7vgIRe-34" value="+ getName(): string" style="text;strokeColor=none;fillColor=none;align=left;verticalAlign=top;spacingLeft=4;spacingRight=4;overflow=hidden;rotatable=0;points=[[0,0.5],[1,0.5]];portConstraint=eastwest;" vertex="1" parent="quUrAPskGc8MLW7vgIRe-31">
          <mxGeometry y="190" width="185" height="26" as="geometry" />
        </mxCell>
        <mxCell id="quUrAPskGc8MLW7vgIRe-40" value="+ getPosition(): double" style="text;strokeColor=none;fillColor=none;align=left;verticalAlign=top;spacingLeft=4;spacingRight=4;overflow=hidden;rotatable=0;points=[[0,0.5],[1,0.5]];portConstraint=eastwest;" vertex="1" parent="quUrAPskGc8MLW7vgIRe-31">
          <mxGeometry y="216" width="185" height="26" as="geometry" />
        </mxCell>
        <mxCell id="quUrAPskGc8MLW7vgIRe-41" value="+ getVelocity(): double" style="text;strokeColor=none;fillColor=none;align=left;verticalAlign=top;spacingLeft=4;spacingRight=4;overflow=hidden;rotatable=0;points=[[0,0.5],[1,0.5]];portConstraint=eastwest;" vertex="1" parent="quUrAPskGc8MLW7vgIRe-31">
          <mxGeometry y="242" width="185" height="26" as="geometry" />
        </mxCell>
        <mxCell id="quUrAPskGc8MLW7vgIRe-42" value="+ getEffort(): double" style="text;strokeColor=none;fillColor=none;align=left;verticalAlign=top;spacingLeft=4;spacingRight=4;overflow=hidden;rotatable=0;points=[[0,0.5],[1,0.5]];portConstraint=eastwest;" vertex="1" parent="quUrAPskGc8MLW7vgIRe-31">
          <mxGeometry y="268" width="185" height="26" as="geometry" />
        </mxCell>
        <mxCell id="quUrAPskGc8MLW7vgIRe-60" style="edgeStyle=none;rounded=0;orthogonalLoop=1;jettySize=auto;html=1;endArrow=block;endFill=0;" edge="1" parent="1" source="quUrAPskGc8MLW7vgIRe-43" target="quUrAPskGc8MLW7vgIRe-31">
          <mxGeometry relative="1" as="geometry" />
        </mxCell>
        <mxCell id="quUrAPskGc8MLW7vgIRe-43" value="JointHandle" style="swimlane;fontStyle=1;align=center;verticalAlign=top;childLayout=stackLayout;horizontal=1;startSize=26;horizontalStack=0;resizeParent=1;resizeParentMax=0;resizeLast=0;collapsible=1;marginBottom=0;" vertex="1" parent="1">
          <mxGeometry x="291" y="676" width="180" height="112" as="geometry" />
        </mxCell>
        <mxCell id="quUrAPskGc8MLW7vgIRe-44" value="- cmd_: const double*" style="text;strokeColor=none;fillColor=none;align=left;verticalAlign=top;spacingLeft=4;spacingRight=4;overflow=hidden;rotatable=0;points=[[0,0.5],[1,0.5]];portConstraint=eastwest;" vertex="1" parent="quUrAPskGc8MLW7vgIRe-43">
          <mxGeometry y="26" width="180" height="26" as="geometry" />
        </mxCell>
        <mxCell id="quUrAPskGc8MLW7vgIRe-45" value="" style="line;strokeWidth=1;fillColor=none;align=left;verticalAlign=middle;spacingTop=-1;spacingLeft=3;spacingRight=3;rotatable=0;labelPosition=right;points=[];portConstraint=eastwest;" vertex="1" parent="quUrAPskGc8MLW7vgIRe-43">
          <mxGeometry y="52" width="180" height="8" as="geometry" />
        </mxCell>
        <mxCell id="quUrAPskGc8MLW7vgIRe-46" value="+ setCommand(double): void" style="text;strokeColor=none;fillColor=none;align=left;verticalAlign=top;spacingLeft=4;spacingRight=4;overflow=hidden;rotatable=0;points=[[0,0.5],[1,0.5]];portConstraint=eastwest;" vertex="1" parent="quUrAPskGc8MLW7vgIRe-43">
          <mxGeometry y="60" width="180" height="26" as="geometry" />
        </mxCell>
        <mxCell id="quUrAPskGc8MLW7vgIRe-47" value="+ getCommand() const: double" style="text;strokeColor=none;fillColor=none;align=left;verticalAlign=top;spacingLeft=4;spacingRight=4;overflow=hidden;rotatable=0;points=[[0,0.5],[1,0.5]];portConstraint=eastwest;" vertex="1" parent="quUrAPskGc8MLW7vgIRe-43">
          <mxGeometry y="86" width="180" height="26" as="geometry" />
        </mxCell>
        <mxCell id="quUrAPskGc8MLW7vgIRe-50" style="edgeStyle=none;rounded=0;orthogonalLoop=1;jettySize=auto;html=1;endArrow=block;endFill=0;" edge="1" parent="1" source="quUrAPskGc8MLW7vgIRe-48" target="quUrAPskGc8MLW7vgIRe-11">
          <mxGeometry relative="1" as="geometry">
            <mxPoint x="441" y="430" as="targetPoint" />
          </mxGeometry>
        </mxCell>
        <mxCell id="quUrAPskGc8MLW7vgIRe-51" value="&amp;lt;&amp;lt;bind&amp;gt;&amp;gt;&lt;br&gt;(JointHandle, ClaimResources)" style="edgeLabel;html=1;align=center;verticalAlign=middle;resizable=0;points=[];" vertex="1" connectable="0" parent="quUrAPskGc8MLW7vgIRe-50">
          <mxGeometry x="-0.1884" y="-1" relative="1" as="geometry">
            <mxPoint x="-1" y="-6" as="offset" />
          </mxGeometry>
        </mxCell>
        <mxCell id="quUrAPskGc8MLW7vgIRe-48" value="«interface»&lt;br&gt;&lt;b&gt;JointCommandInterface&lt;/b&gt;" style="html=1;fillColor=#ffe6cc;strokeColor=#d79b00;" vertex="1" parent="1">
          <mxGeometry x="306" y="490" width="150" height="50" as="geometry" />
        </mxCell>
        <mxCell id="quUrAPskGc8MLW7vgIRe-58" style="edgeStyle=none;rounded=0;orthogonalLoop=1;jettySize=auto;html=1;endArrow=block;endFill=0;" edge="1" parent="1" source="quUrAPskGc8MLW7vgIRe-52" target="quUrAPskGc8MLW7vgIRe-11">
          <mxGeometry relative="1" as="geometry" />
        </mxCell>
        <mxCell id="quUrAPskGc8MLW7vgIRe-59" value="&lt;span style=&quot;font-family: &amp;#34;helvetica&amp;#34;&quot;&gt;&amp;lt;&amp;lt;bind&amp;gt;&amp;gt;&lt;/span&gt;&lt;br style=&quot;font-family: &amp;#34;helvetica&amp;#34;&quot;&gt;&lt;span style=&quot;font-family: &amp;#34;helvetica&amp;#34;&quot;&gt;(JointStateHandle, DontClaimResources)&lt;/span&gt;" style="edgeLabel;html=1;align=right;verticalAlign=middle;resizable=0;points=[];" vertex="1" connectable="0" parent="quUrAPskGc8MLW7vgIRe-58">
          <mxGeometry x="-0.3438" y="1" relative="1" as="geometry">
            <mxPoint x="-11" y="-9" as="offset" />
          </mxGeometry>
        </mxCell>
        <mxCell id="quUrAPskGc8MLW7vgIRe-52" value="«interface»&lt;br&gt;&lt;b&gt;JointStateInterface&lt;/b&gt;" style="html=1;fillColor=#ffe6cc;strokeColor=#d79b00;" vertex="1" parent="1">
          <mxGeometry x="83.5" y="490" width="150" height="50" as="geometry" />
        </mxCell>
        <mxCell id="quUrAPskGc8MLW7vgIRe-61" value="ImuSensorHandle" style="swimlane;fontStyle=1;align=center;verticalAlign=top;childLayout=stackLayout;horizontal=1;startSize=26;horizontalStack=0;resizeParent=1;resizeParentMax=0;resizeLast=0;collapsible=1;marginBottom=0;" vertex="1" parent="1">
          <mxGeometry x="481" y="585" width="270" height="294" as="geometry" />
        </mxCell>
        <mxCell id="quUrAPskGc8MLW7vgIRe-62" value="- name_: string" style="text;strokeColor=none;fillColor=none;align=left;verticalAlign=top;spacingLeft=4;spacingRight=4;overflow=hidden;rotatable=0;points=[[0,0.5],[1,0.5]];portConstraint=eastwest;" vertex="1" parent="quUrAPskGc8MLW7vgIRe-61">
          <mxGeometry y="26" width="270" height="26" as="geometry" />
        </mxCell>
        <mxCell id="quUrAPskGc8MLW7vgIRe-66" value="- frame_id_: string" style="text;strokeColor=none;fillColor=none;align=left;verticalAlign=top;spacingLeft=4;spacingRight=4;overflow=hidden;rotatable=0;points=[[0,0.5],[1,0.5]];portConstraint=eastwest;" vertex="1" parent="quUrAPskGc8MLW7vgIRe-61">
          <mxGeometry y="52" width="270" height="26" as="geometry" />
        </mxCell>
        <mxCell id="quUrAPskGc8MLW7vgIRe-67" value="- orientation_: const double*" style="text;strokeColor=none;fillColor=none;align=left;verticalAlign=top;spacingLeft=4;spacingRight=4;overflow=hidden;rotatable=0;points=[[0,0.5],[1,0.5]];portConstraint=eastwest;" vertex="1" parent="quUrAPskGc8MLW7vgIRe-61">
          <mxGeometry y="78" width="270" height="26" as="geometry" />
        </mxCell>
        <mxCell id="quUrAPskGc8MLW7vgIRe-68" value="- orientation_covariance_: const double*" style="text;strokeColor=none;fillColor=none;align=left;verticalAlign=top;spacingLeft=4;spacingRight=4;overflow=hidden;rotatable=0;points=[[0,0.5],[1,0.5]];portConstraint=eastwest;" vertex="1" parent="quUrAPskGc8MLW7vgIRe-61">
          <mxGeometry y="104" width="270" height="26" as="geometry" />
        </mxCell>
        <mxCell id="quUrAPskGc8MLW7vgIRe-69" value="- angular_velocity_: const double*" style="text;strokeColor=none;fillColor=none;align=left;verticalAlign=top;spacingLeft=4;spacingRight=4;overflow=hidden;rotatable=0;points=[[0,0.5],[1,0.5]];portConstraint=eastwest;" vertex="1" parent="quUrAPskGc8MLW7vgIRe-61">
          <mxGeometry y="130" width="270" height="26" as="geometry" />
        </mxCell>
        <mxCell id="quUrAPskGc8MLW7vgIRe-70" value="- angular_velocity_covariance_: const double*" style="text;strokeColor=none;fillColor=none;align=left;verticalAlign=top;spacingLeft=4;spacingRight=4;overflow=hidden;rotatable=0;points=[[0,0.5],[1,0.5]];portConstraint=eastwest;" vertex="1" parent="quUrAPskGc8MLW7vgIRe-61">
          <mxGeometry y="156" width="270" height="26" as="geometry" />
        </mxCell>
        <mxCell id="quUrAPskGc8MLW7vgIRe-71" value="- linear_acceleration_: const double*" style="text;strokeColor=none;fillColor=none;align=left;verticalAlign=top;spacingLeft=4;spacingRight=4;overflow=hidden;rotatable=0;points=[[0,0.5],[1,0.5]];portConstraint=eastwest;" vertex="1" parent="quUrAPskGc8MLW7vgIRe-61">
          <mxGeometry y="182" width="270" height="26" as="geometry" />
        </mxCell>
        <mxCell id="quUrAPskGc8MLW7vgIRe-72" value="- linear_acceleration_covariance_: const double*" style="text;strokeColor=none;fillColor=none;align=left;verticalAlign=top;spacingLeft=4;spacingRight=4;overflow=hidden;rotatable=0;points=[[0,0.5],[1,0.5]];portConstraint=eastwest;" vertex="1" parent="quUrAPskGc8MLW7vgIRe-61">
          <mxGeometry y="208" width="270" height="26" as="geometry" />
        </mxCell>
        <mxCell id="quUrAPskGc8MLW7vgIRe-63" value="" style="line;strokeWidth=1;fillColor=none;align=left;verticalAlign=middle;spacingTop=-1;spacingLeft=3;spacingRight=3;rotatable=0;labelPosition=right;points=[];portConstraint=eastwest;" vertex="1" parent="quUrAPskGc8MLW7vgIRe-61">
          <mxGeometry y="234" width="270" height="8" as="geometry" />
        </mxCell>
        <mxCell id="quUrAPskGc8MLW7vgIRe-64" value="+ setCommand(double): void" style="text;strokeColor=none;fillColor=none;align=left;verticalAlign=top;spacingLeft=4;spacingRight=4;overflow=hidden;rotatable=0;points=[[0,0.5],[1,0.5]];portConstraint=eastwest;" vertex="1" parent="quUrAPskGc8MLW7vgIRe-61">
          <mxGeometry y="242" width="270" height="26" as="geometry" />
        </mxCell>
        <mxCell id="quUrAPskGc8MLW7vgIRe-65" value="+ getCommand() const: double" style="text;strokeColor=none;fillColor=none;align=left;verticalAlign=top;spacingLeft=4;spacingRight=4;overflow=hidden;rotatable=0;points=[[0,0.5],[1,0.5]];portConstraint=eastwest;" vertex="1" parent="quUrAPskGc8MLW7vgIRe-61">
          <mxGeometry y="268" width="270" height="26" as="geometry" />
        </mxCell>
        <mxCell id="quUrAPskGc8MLW7vgIRe-74" style="edgeStyle=none;rounded=0;orthogonalLoop=1;jettySize=auto;html=1;endArrow=block;endFill=0;" edge="1" parent="1" source="quUrAPskGc8MLW7vgIRe-73" target="quUrAPskGc8MLW7vgIRe-11">
          <mxGeometry relative="1" as="geometry" />
        </mxCell>
        <mxCell id="quUrAPskGc8MLW7vgIRe-75" value="&amp;lt;&amp;lt;bind&amp;gt;&amp;gt;&lt;br&gt;(ImuSensorHandle, DontClaimResources)" style="edgeLabel;html=1;align=left;verticalAlign=middle;resizable=0;points=[];" vertex="1" connectable="0" parent="quUrAPskGc8MLW7vgIRe-74">
          <mxGeometry x="-0.3481" y="-1" relative="1" as="geometry">
            <mxPoint x="16" y="-9" as="offset" />
          </mxGeometry>
        </mxCell>
        <mxCell id="quUrAPskGc8MLW7vgIRe-73" value="«interface»&lt;br&gt;&lt;b&gt;ImuSensorInterface&lt;/b&gt;" style="html=1;fillColor=#ffe6cc;strokeColor=#d79b00;" vertex="1" parent="1">
          <mxGeometry x="531" y="490" width="150" height="50" as="geometry" />
        </mxCell>
      </root>
    </mxGraphModel>
  </diagram>
</mxfile>
